<?xml version="1.0" encoding="utf-8"?>
<svg version="1.1" xmlns:xlink="http://www.w3.org/1999/xlink" width="10px" height="10px" xmlns="http://www.w3.org/2000/svg">
  <g transform="matrix(1 0 0 1 -55 -84 )">
    <path d="M 60 84  C 62.8 84  65 86.2  65 89  C 65 91.8  62.8 94  60 94  C 57.2 94  55 91.8  55 89  C 55 86.2  57.2 84  60 84  Z " fill-rule="nonzero" fill="#009dd9" stroke="none" />
    <path d="M 60 84.5  C 62.52 84.5  64.5 86.48  64.5 89  C 64.5 91.52  62.52 93.5  60 93.5  C 57.48 93.5  55.5 91.52  55.5 89  C 55.5 86.48  57.48 84.5  60 84.5  Z " stroke-width="1" stroke="#ffffff" fill="none" />
  </g>
</svg>