<?xml version="1.0" encoding="utf-8"?>
<svg version="1.1" xmlns:xlink="http://www.w3.org/1999/xlink" width="10px" height="10px" xmlns="http://www.w3.org/2000/svg">
  <g transform="matrix(1 0 0 1 -248 -91 )">
    <path d="M 253 91  C 255.8 91  258 93.2  258 96  C 258 98.8  255.8 101  253 101  C 250.2 101  248 98.8  248 96  C 248 93.2  250.2 91  253 91  Z " fill-rule="nonzero" fill="#ffffff" stroke="none" />
    <path d="M 253 91.5  C 255.52 91.5  257.5 93.48  257.5 96  C 257.5 98.52  255.52 100.5  253 100.5  C 250.48 100.5  248.5 98.52  248.5 96  C 248.5 93.48  250.48 91.5  253 91.5  Z " stroke-width="1" stroke="#797979" fill="none" />
  </g>
</svg>