<?xml version="1.0" encoding="utf-8"?>
<svg version="1.1" xmlns:xlink="http://www.w3.org/1999/xlink" width="15px" height="15px" xmlns="http://www.w3.org/2000/svg">
  <g transform="matrix(1 0 0 1 -191 -7 )">
    <path d="M 15 2.14019851116625  C 15 2.3014888337469  14.9083011583012 2.44106699751861  14.7249034749035 2.55893300248139  L 7.03667953667954 7.5  L 14.7249034749035 12.4410669975186  C 14.9083011583012 12.5589330024814  15 12.6985111662531  15 12.8598014888337  C 15 13.0210918114144  14.9083011583012 13.1606699751861  14.7249034749035 13.2785359801489  L 12.3214285714286 14.8232009925558  C 12.1380308880309 14.9410669975186  11.9208494208494 15  11.6698841698842 15  C 11.4189189189189 15  11.2017374517375 14.9410669975186  11.0183397683398 14.8232009925558  L 0.275096525096525 7.91873449131514  C 0.0916988416988418 7.80086848635236  0 7.66129032258065  0 7.5  C 0 7.33870967741936  0.0916988416988418 7.19913151364764  0.275096525096525 7.08126550868486  L 11.0183397683398 0.176799007444168  C 11.2017374517375 0.0589330024813889  11.4189189189189 0  11.6698841698842 0  C 11.9208494208494 0  12.1380308880309 0.0589330024813889  12.3214285714286 0.176799007444168  L 14.7249034749035 1.72146401985112  C 14.9083011583012 1.83933002481389  15 1.97890818858561  15 2.14019851116625  Z " fill-rule="nonzero" fill="#bfb9b9" stroke="none" transform="matrix(1 0 0 1 191 7 )" />
  </g>
</svg>