<svg xmlns="http://www.w3.org/2000/svg" width="20" height="20">
  <defs>
        <linearGradient x1="0%" y1="0%" x2="100%" y2="100%" id="aa">
            <stop stop-color="#4276FF" offset="0%"></stop>
            <stop stop-color="#32B6FF" offset="100%"></stop>
        </linearGradient>
    </defs>
    <g id="Page-1" stroke="none" stroke-width="1" fill="none" fill-rule="evenodd">
        <g id="button/add">
            <g id="icon">
                <rect id="Rectangle" fill="url(#aa)" x="0" y="0" width="20" height="20"></rect>
                <path d="M10.6150144,13.4164143 C10.6150144,13.7555826 10.3396213,14.0309757 9.99972823,14.0317004 C9.83014407,14.0317004 9.67650372,13.9621274 9.56562176,13.8512455 C9.45401509,13.7396388 9.38516682,13.5867232 9.3844421,13.4164143 L9.38516682,10.6153767 L6.58340455,10.6153767 C6.41382038,10.6153767 6.26018003,10.5458037 6.14929808,10.4349218 C6.03769141,10.3233151 5.96884314,10.1703995 5.96884314,10.0008153 C5.96884314,9.66019755 6.24423622,9.38480446 6.58412927,9.38552918 L9.38516682,9.38480446 L9.38516682,6.58449162 C9.38516682,6.24387386 9.65983519,5.9692055 10.0004529,5.9692055 C10.3396213,5.9692055 10.6150144,6.24459858 10.6150144,6.58376691 L10.6150144,9.38552918 L13.4160519,9.38480446 C13.755945,9.38552918 14.031338,9.66092226 14.031338,10.0000906 C14.0306133,10.3399836 13.755945,10.614652 13.4160519,10.6153767 L10.6150144,10.614652 L10.6150144,13.4164143 L10.6150144,13.4164143 Z" id="path" fill="#FFFFFF"></path>
            </g>
        </g>
    </g>
</svg>
